<svg width="22" height="18" viewBox="0 0 22 18" fill="none" xmlns="http://www.w3.org/2000/svg">
<path fill-rule="evenodd" clip-rule="evenodd" d="M13.4697 0.46967C13.7626 0.176777 14.2375 0.176777 14.5304 0.46967L18.3107 4.25001H21C21.4142 4.25001 21.75 4.5858 21.75 5.00001C21.75 5.41422 21.4142 5.75001 21 5.75001H20.4557C20.2293 6.60606 19.9365 7.59301 19.5959 8.74137L18.5708 12.1969C18.1636 13.5702 17.914 14.412 17.4765 15.0966C16.7233 16.2751 15.5663 17.1386 14.2223 17.5256C13.4416 17.7503 12.5635 17.7502 11.1312 17.75H10.8688C9.43649 17.7502 8.55843 17.7503 7.77772 17.5256C6.43365 17.1386 5.2767 16.2751 4.52349 15.0966C4.08598 14.412 3.83637 13.5702 3.42921 12.1969L2.40431 8.74199C2.06357 7.59338 1.77073 6.60621 1.54431 5.75001H1C0.585786 5.75001 0.25 5.41422 0.25 5.00001C0.25 4.5858 0.585786 4.25001 1 4.25001H3.93198L7.71231 0.469685C8.0052 0.176792 8.48008 0.176792 8.77297 0.469685C9.06586 0.762578 9.06586 1.23745 8.77297 1.53035L6.05331 4.25001H16.1894L13.4697 1.53033C13.1768 1.23744 13.1768 0.762563 13.4697 0.46967ZM9.75 9.00002C9.75 8.5858 9.41421 8.25002 9 8.25002C8.58579 8.25002 8.25 8.5858 8.25 9.00002V13C8.25 13.4142 8.58579 13.75 9 13.75C9.41421 13.75 9.75 13.4142 9.75 13V9.00002ZM13.75 9.00002C13.75 8.5858 13.4142 8.25002 13 8.25002C12.5858 8.25002 12.25 8.5858 12.25 9.00002V13C12.25 13.4142 12.5858 13.75 13 13.75C13.4142 13.75 13.75 13.4142 13.75 13V9.00002Z" fill="#FAFAFA"/>
</svg>
